<mxfile host="app.diagrams.net" modified="2024-04-04T20:11:31.231Z" agent="Mozilla/5.0 (Windows NT 10.0; Win64; x64) AppleWebKit/537.36 (KHTML, like Gecko) Chrome/123.0.0.0 Safari/537.36" etag="V1_Z_oTeznqHfY0JEnb1" version="24.2.2" type="google">
  <diagram id="prtHgNgQTEPvFCAcTncT" name="Page-1">
    <mxGraphModel grid="1" page="1" gridSize="10" guides="1" tooltips="1" connect="1" arrows="1" fold="1" pageScale="1" pageWidth="827" pageHeight="1169" math="0" shadow="0">
      <root>
        <mxCell id="0" />
        <mxCell id="1" parent="0" />
        <mxCell id="VGZKEhfj8a1qUi9t2Z1B-92" value="EmpleoTotal_Empleados" style="swimlane;childLayout=stackLayout;resizeParent=1;resizeParentMax=0;horizontal=0;startSize=20;horizontalStack=0;html=1;" vertex="1" parent="1">
          <mxGeometry x="10" y="-10" width="930" height="525" as="geometry" />
        </mxCell>
        <mxCell id="VGZKEhfj8a1qUi9t2Z1B-93" value="Usuario" style="swimlane;startSize=20;horizontal=0;html=1;" vertex="1" parent="VGZKEhfj8a1qUi9t2Z1B-92">
          <mxGeometry x="20" width="910" height="225" as="geometry" />
        </mxCell>
        <mxCell id="VGZKEhfj8a1qUi9t2Z1B-90" value="usuario se registra" style="whiteSpace=wrap;html=1;fontColor=#000000;" vertex="1" parent="VGZKEhfj8a1qUi9t2Z1B-93">
          <mxGeometry x="170" y="25" width="120" height="60" as="geometry" />
        </mxCell>
        <mxCell id="blh371SRLu3pGNC4O-rb-17" value="" style="edgeStyle=orthogonalEdgeStyle;rounded=0;orthogonalLoop=1;jettySize=auto;html=1;" edge="1" parent="VGZKEhfj8a1qUi9t2Z1B-93" source="VGZKEhfj8a1qUi9t2Z1B-3" target="VGZKEhfj8a1qUi9t2Z1B-8">
          <mxGeometry relative="1" as="geometry" />
        </mxCell>
        <mxCell id="VGZKEhfj8a1qUi9t2Z1B-3" value="Iniciar sesión" style="rounded=0;whiteSpace=wrap;html=1;" vertex="1" parent="VGZKEhfj8a1qUi9t2Z1B-93">
          <mxGeometry x="350" y="25" width="120" height="60" as="geometry" />
        </mxCell>
        <mxCell id="VGZKEhfj8a1qUi9t2Z1B-8" value="llena formulario hoja de vida&amp;nbsp;" style="whiteSpace=wrap;html=1;fontColor=#000000;" vertex="1" parent="VGZKEhfj8a1qUi9t2Z1B-93">
          <mxGeometry x="520" y="25" width="120" height="60" as="geometry" />
        </mxCell>
        <mxCell id="blh371SRLu3pGNC4O-rb-24" value="" style="endArrow=classic;html=1;rounded=0;exitX=1;exitY=0.5;exitDx=0;exitDy=0;" edge="1" parent="VGZKEhfj8a1qUi9t2Z1B-93" source="VGZKEhfj8a1qUi9t2Z1B-90">
          <mxGeometry width="50" height="50" relative="1" as="geometry">
            <mxPoint x="410" y="210" as="sourcePoint" />
            <mxPoint x="350" y="55" as="targetPoint" />
          </mxGeometry>
        </mxCell>
        <mxCell id="vFGFe1T43AmkEjXsbLYs-2" value="" style="edgeStyle=orthogonalEdgeStyle;rounded=0;orthogonalLoop=1;jettySize=auto;html=1;" edge="1" parent="VGZKEhfj8a1qUi9t2Z1B-93" source="nzgN958lLjEnTINk0f4v-1" target="vFGFe1T43AmkEjXsbLYs-1">
          <mxGeometry relative="1" as="geometry" />
        </mxCell>
        <mxCell id="nzgN958lLjEnTINk0f4v-1" value="Postular hoja de vida a diferentes empresas" style="rounded=0;whiteSpace=wrap;html=1;" vertex="1" parent="VGZKEhfj8a1qUi9t2Z1B-93">
          <mxGeometry x="710" y="25" width="120" height="60" as="geometry" />
        </mxCell>
        <mxCell id="nzgN958lLjEnTINk0f4v-2" value="" style="endArrow=classic;html=1;rounded=0;exitX=1;exitY=0.5;exitDx=0;exitDy=0;entryX=0;entryY=0.5;entryDx=0;entryDy=0;" edge="1" parent="VGZKEhfj8a1qUi9t2Z1B-93" source="VGZKEhfj8a1qUi9t2Z1B-8" target="nzgN958lLjEnTINk0f4v-1">
          <mxGeometry width="50" height="50" relative="1" as="geometry">
            <mxPoint x="480" y="180" as="sourcePoint" />
            <mxPoint x="530" y="130" as="targetPoint" />
          </mxGeometry>
        </mxCell>
        <mxCell id="JCfDpbPzUGsdqzPaAwki-2" value="" style="edgeStyle=orthogonalEdgeStyle;rounded=0;orthogonalLoop=1;jettySize=auto;html=1;" edge="1" parent="VGZKEhfj8a1qUi9t2Z1B-93" source="JCfDpbPzUGsdqzPaAwki-1" target="VGZKEhfj8a1qUi9t2Z1B-90">
          <mxGeometry relative="1" as="geometry" />
        </mxCell>
        <mxCell id="JCfDpbPzUGsdqzPaAwki-1" value="Inicio" style="ellipse;whiteSpace=wrap;html=1;aspect=fixed;" vertex="1" parent="VGZKEhfj8a1qUi9t2Z1B-93">
          <mxGeometry x="50" y="15" width="80" height="80" as="geometry" />
        </mxCell>
        <mxCell id="vFGFe1T43AmkEjXsbLYs-1" value="el aplicativo web almacena y ordena en una base de datos&amp;nbsp;" style="whiteSpace=wrap;html=1;rounded=0;" vertex="1" parent="VGZKEhfj8a1qUi9t2Z1B-93">
          <mxGeometry x="710" y="130" width="120" height="60" as="geometry" />
        </mxCell>
        <mxCell id="VGZKEhfj8a1qUi9t2Z1B-94" value="Busqueda&lt;br&gt;" style="swimlane;startSize=20;horizontal=0;html=1;" vertex="1" parent="VGZKEhfj8a1qUi9t2Z1B-92">
          <mxGeometry x="20" y="225" width="910" height="150" as="geometry" />
        </mxCell>
        <mxCell id="blh371SRLu3pGNC4O-rb-10" value="la ampresa se comunica mediante el chat del aplicaticvo web o mediante otra plataforma de su gusto" style="whiteSpace=wrap;html=1;fontColor=#000000;" vertex="1" parent="VGZKEhfj8a1qUi9t2Z1B-94">
          <mxGeometry x="40" width="140" height="90" as="geometry" />
        </mxCell>
        <mxCell id="nzgN958lLjEnTINk0f4v-4" value="Interés de empresas por el usuario" style="rounded=0;whiteSpace=wrap;html=1;" vertex="1" parent="VGZKEhfj8a1qUi9t2Z1B-94">
          <mxGeometry x="263.5" y="15" width="120" height="60" as="geometry" />
        </mxCell>
        <mxCell id="nzgN958lLjEnTINk0f4v-5" value="" style="rhombus;whiteSpace=wrap;html=1;" vertex="1" parent="VGZKEhfj8a1qUi9t2Z1B-94">
          <mxGeometry x="460" y="20" width="50" height="50" as="geometry" />
        </mxCell>
        <mxCell id="nzgN958lLjEnTINk0f4v-9" value="&lt;span style=&quot;color: rgb(0, 0, 0); font-family: Helvetica; font-size: 12px; font-style: normal; font-variant-ligatures: normal; font-variant-caps: normal; font-weight: 400; letter-spacing: normal; orphans: 2; text-align: center; text-indent: 0px; text-transform: none; widows: 2; word-spacing: 0px; -webkit-text-stroke-width: 0px; background-color: rgb(251, 251, 251); text-decoration-thickness: initial; text-decoration-style: initial; text-decoration-color: initial; float: none; display: inline !important;&quot;&gt;SI&lt;/span&gt;" style="text;whiteSpace=wrap;html=1;" vertex="1" parent="VGZKEhfj8a1qUi9t2Z1B-94">
          <mxGeometry x="460" y="100" width="20" height="20" as="geometry" />
        </mxCell>
        <mxCell id="nzgN958lLjEnTINk0f4v-15" value="" style="endArrow=classic;html=1;rounded=0;exitX=1;exitY=0.5;exitDx=0;exitDy=0;entryX=0;entryY=0.5;entryDx=0;entryDy=0;" edge="1" parent="VGZKEhfj8a1qUi9t2Z1B-94" source="blh371SRLu3pGNC4O-rb-10" target="nzgN958lLjEnTINk0f4v-4">
          <mxGeometry width="50" height="50" relative="1" as="geometry">
            <mxPoint x="410" y="90" as="sourcePoint" />
            <mxPoint x="230" y="70" as="targetPoint" />
          </mxGeometry>
        </mxCell>
        <mxCell id="nzgN958lLjEnTINk0f4v-10" value="&lt;div style=&quot;text-align: center;&quot;&gt;&lt;span style=&quot;background-color: initial;&quot;&gt;NO&lt;/span&gt;&lt;/div&gt;" style="text;whiteSpace=wrap;html=1;" vertex="1" parent="VGZKEhfj8a1qUi9t2Z1B-94">
          <mxGeometry x="530" y="45" width="10" height="10" as="geometry" />
        </mxCell>
        <mxCell id="nzgN958lLjEnTINk0f4v-14" value="" style="endArrow=classic;html=1;rounded=0;exitX=1;exitY=0.5;exitDx=0;exitDy=0;entryX=0;entryY=0.5;entryDx=0;entryDy=0;" edge="1" parent="VGZKEhfj8a1qUi9t2Z1B-94" source="nzgN958lLjEnTINk0f4v-4" target="nzgN958lLjEnTINk0f4v-5">
          <mxGeometry width="50" height="50" relative="1" as="geometry">
            <mxPoint x="410" y="90" as="sourcePoint" />
            <mxPoint x="460" y="70" as="targetPoint" />
          </mxGeometry>
        </mxCell>
        <mxCell id="nzgN958lLjEnTINk0f4v-19" value="" style="endArrow=none;html=1;rounded=0;exitX=1;exitY=0.5;exitDx=0;exitDy=0;entryX=0.5;entryY=0;entryDx=0;entryDy=0;" edge="1" parent="VGZKEhfj8a1qUi9t2Z1B-94" source="nzgN958lLjEnTINk0f4v-5" target="qkVA327WZq8J_ygtdWvb-2">
          <mxGeometry width="50" height="50" relative="1" as="geometry">
            <mxPoint x="430" y="30" as="sourcePoint" />
            <mxPoint x="480" y="-20" as="targetPoint" />
            <Array as="points">
              <mxPoint x="700" y="45" />
            </Array>
          </mxGeometry>
        </mxCell>
        <mxCell id="nzgN958lLjEnTINk0f4v-16" value="" style="endArrow=classic;html=1;rounded=0;exitX=0.5;exitY=1;exitDx=0;exitDy=0;entryX=0.75;entryY=1;entryDx=0;entryDy=0;" edge="1" parent="VGZKEhfj8a1qUi9t2Z1B-94" source="nzgN958lLjEnTINk0f4v-5" target="blh371SRLu3pGNC4O-rb-10">
          <mxGeometry width="50" height="50" relative="1" as="geometry">
            <mxPoint x="410" y="55" as="sourcePoint" />
            <mxPoint x="180" y="135" as="targetPoint" />
            <Array as="points">
              <mxPoint x="485" y="135" />
              <mxPoint x="145" y="135" />
            </Array>
          </mxGeometry>
        </mxCell>
        <mxCell id="VGZKEhfj8a1qUi9t2Z1B-95" value="Seleccion" style="swimlane;startSize=20;horizontal=0;html=1;" vertex="1" parent="VGZKEhfj8a1qUi9t2Z1B-92">
          <mxGeometry x="20" y="375" width="910" height="150" as="geometry" />
        </mxCell>
        <mxCell id="blh371SRLu3pGNC4O-rb-20" value="si la empresa lo requiere puede hacer entrevista virtual o presencial&amp;nbsp;" style="whiteSpace=wrap;html=1;fontColor=#000000;" vertex="1" parent="VGZKEhfj8a1qUi9t2Z1B-95">
          <mxGeometry x="50" y="60" width="120" height="60" as="geometry" />
        </mxCell>
        <mxCell id="vFGFe1T43AmkEjXsbLYs-5" value="" style="edgeStyle=orthogonalEdgeStyle;rounded=0;orthogonalLoop=1;jettySize=auto;html=1;" edge="1" parent="VGZKEhfj8a1qUi9t2Z1B-95" source="VGZKEhfj8a1qUi9t2Z1B-89" target="qkVA327WZq8J_ygtdWvb-2">
          <mxGeometry relative="1" as="geometry" />
        </mxCell>
        <mxCell id="VGZKEhfj8a1qUi9t2Z1B-89" value="Esperar resultados" style="rounded=0;whiteSpace=wrap;html=1;" vertex="1" parent="VGZKEhfj8a1qUi9t2Z1B-95">
          <mxGeometry x="410" y="60" width="120" height="60" as="geometry" />
        </mxCell>
        <mxCell id="blh371SRLu3pGNC4O-rb-25" value="" style="edgeStyle=orthogonalEdgeStyle;rounded=0;orthogonalLoop=1;jettySize=auto;html=1;" edge="1" parent="VGZKEhfj8a1qUi9t2Z1B-95" source="blh371SRLu3pGNC4O-rb-20" target="VGZKEhfj8a1qUi9t2Z1B-89">
          <mxGeometry relative="1" as="geometry" />
        </mxCell>
        <mxCell id="qkVA327WZq8J_ygtdWvb-2" value="FIN" style="ellipse;whiteSpace=wrap;html=1;rounded=0;" vertex="1" parent="VGZKEhfj8a1qUi9t2Z1B-95">
          <mxGeometry x="660" y="50" width="80" height="80" as="geometry" />
        </mxCell>
        <mxCell id="blh371SRLu3pGNC4O-rb-21" value="" style="edgeStyle=orthogonalEdgeStyle;rounded=0;orthogonalLoop=1;jettySize=auto;html=1;" edge="1" parent="VGZKEhfj8a1qUi9t2Z1B-92" source="blh371SRLu3pGNC4O-rb-10" target="blh371SRLu3pGNC4O-rb-20">
          <mxGeometry relative="1" as="geometry" />
        </mxCell>
        <mxCell id="vFGFe1T43AmkEjXsbLYs-3" value="" style="endArrow=classic;startArrow=classic;html=1;rounded=0;entryX=0;entryY=0.5;entryDx=0;entryDy=0;exitX=0.5;exitY=0;exitDx=0;exitDy=0;" edge="1" parent="VGZKEhfj8a1qUi9t2Z1B-92" source="blh371SRLu3pGNC4O-rb-10" target="vFGFe1T43AmkEjXsbLYs-1">
          <mxGeometry width="50" height="50" relative="1" as="geometry">
            <mxPoint x="110" y="240" as="sourcePoint" />
            <mxPoint x="720" y="160" as="targetPoint" />
            <Array as="points">
              <mxPoint x="130" y="160" />
            </Array>
          </mxGeometry>
        </mxCell>
      </root>
    </mxGraphModel>
  </diagram>
</mxfile>
